<svg width="106" height="22" viewBox="0 0 106 22" fill="none" xmlns="http://www.w3.org/2000/svg">
<path d="M4.80576 11.2187L2.40184 13.6206L0 11.2187L2.40184 8.81687L4.80576 11.2187ZM10.6338 5.38656L14.7497 9.5046L17.1516 7.10276L10.6338 0.584961L4.11596 7.10276L6.5178 9.5046L10.6338 5.38656ZM18.8678 8.81687L16.4659 11.2187L18.8678 13.6206L21.2675 11.2187L18.8678 8.81687ZM10.6338 17.0509L6.5178 12.9349L4.11596 15.3347L10.6338 21.8525L17.1516 15.3347L14.7497 12.9349L10.6338 17.0509ZM10.6338 13.6206L13.0356 11.2187L10.6338 8.81687L8.23192 11.2187L10.6338 13.6206ZM35.9819 13.8512V13.8179C35.9819 12.2513 35.1508 11.468 33.7982 10.9528C34.6293 10.4853 35.3316 9.75184 35.3316 8.43665V8.40341C35.3316 6.57086 33.8647 5.38656 31.4816 5.38656H26.0712V17.0509H31.6187C34.2512 17.0509 35.9861 15.985 35.9861 13.8512H35.9819ZM32.7822 8.86466C32.7822 9.73107 32.0654 10.0988 30.9331 10.0988H28.5707V7.63673H31.1034C32.1859 7.63673 32.7864 8.06889 32.7864 8.83557L32.7822 8.86466ZM33.4326 13.5312C33.4326 14.3976 32.749 14.7965 31.6146 14.7965H28.5707V12.2347H31.5356C32.8529 12.2347 33.4367 12.7188 33.4367 13.5021L33.4326 13.5312ZM41.3736 17.0509V5.38656H38.7993V17.0509H41.3736ZM55.1676 17.0509V5.38656H52.6265V12.5692L47.1621 5.38656H44.7956V17.0509H47.3284V9.63549L52.9756 17.0509H55.1676ZM69.3812 17.0509L64.374 5.30345H62.0074L57.0105 17.0509H59.6264L60.6964 14.435H65.6289L66.6948 17.0509H69.3812ZM64.7168 12.1682H61.6085L63.1585 8.38679L64.7168 12.1682ZM81.6128 17.0509V5.38656H79.0717V12.5692L73.6053 5.38656H71.2408V17.0509H73.7715V9.63549L79.4208 17.0509H81.6128ZM94.8582 15.1685L93.2272 13.5187C92.311 14.3498 91.4944 14.8838 90.1605 14.8838C88.1617 14.8838 86.778 13.2216 86.778 11.2187V11.1855C86.778 9.18671 88.195 7.55362 90.1605 7.55362C91.3261 7.55362 92.2382 8.05227 93.1441 8.86882L94.771 6.9864C93.6885 5.92054 92.3733 5.1871 90.173 5.1871C86.591 5.1871 84.0915 7.90268 84.0915 11.2125V11.2457C84.0915 14.595 86.6409 17.2441 90.0732 17.2441C92.3193 17.2503 93.6511 16.4504 94.8499 15.1685H94.8582ZM105.808 17.0509V14.7654H99.4666V12.3116H104.966V10.0261H99.4666V7.66997H105.716V5.38449H96.9173V17.0488L105.808 17.0509Z" fill="#8A87A9"/>
</svg>
