<svg width="115" height="25" viewBox="0 0 115 25" fill="none" xmlns="http://www.w3.org/2000/svg">
<path d="M24.1808 15.1396C22.5678 21.6084 16.0153 25.5452 9.54508 23.932C3.07747 22.3193 -0.859774 15.7672 0.75392 9.2988C2.3661 2.82931 8.91862 -1.10786 15.387 0.504894C21.8569 2.11764 25.7937 8.67053 24.1808 15.1396Z" fill="#252333"/>
<path d="M18.212 10.6755C18.4524 9.02059 17.2292 8.13093 15.5567 7.53744L16.0993 5.2956L14.7746 4.95551L14.2465 7.13827C13.8982 7.04888 13.5406 6.96454 13.1852 6.88098L13.7171 4.68383L12.3933 4.34375L11.8504 6.58481C11.5621 6.51718 11.2792 6.45033 11.0045 6.37998L11.006 6.37299L9.17923 5.90309L8.82686 7.36059C8.82686 7.36059 9.80966 7.59263 9.78891 7.60701C10.3254 7.74499 10.4224 8.11072 10.4061 8.40067L9.78816 10.9546C9.82513 10.9643 9.87305 10.9783 9.92587 11.0001C9.88173 10.9888 9.83457 10.9764 9.7859 10.9643L8.91967 14.542C8.85402 14.7099 8.68764 14.9618 8.31263 14.8662C8.32583 14.886 7.34981 14.6186 7.34981 14.6186L6.69221 16.1806L8.416 16.6233C8.73669 16.7061 9.05096 16.7928 9.36033 16.8744L8.81214 19.1419L10.1353 19.482L10.6782 17.2386C11.0396 17.3396 11.3905 17.4329 11.7338 17.5208L11.1928 19.7537L12.5174 20.0938L13.0656 17.8305C15.3243 18.2709 17.0228 18.0933 17.7378 15.9886C18.3139 14.294 17.7091 13.3165 16.5207 12.6791C17.3862 12.4735 18.0381 11.887 18.212 10.6755ZM15.1855 15.0477C14.7762 16.7423 12.0066 15.8262 11.1086 15.5965L11.836 12.5925C12.7339 12.8233 15.6133 13.2804 15.1855 15.0477ZM15.5952 10.6511C15.2217 12.1925 12.9166 11.4093 12.1688 11.2173L12.8283 8.49278C13.576 8.68478 15.9842 9.04314 15.5952 10.6511Z" fill="#8A87A9"/>
<path d="M40.5984 6.82397C41.4942 6.82397 42.2682 6.98449 42.9186 7.29966C43.572 7.61794 44.1112 8.04669 44.5438 8.5859C44.9705 9.12787 45.2881 9.76132 45.4931 10.4873C45.6968 11.2153 45.799 11.9979 45.799 12.8357C45.799 14.1226 45.5632 15.3385 45.0871 16.4845C44.6111 17.6324 43.9652 18.6279 43.1436 19.4771C42.3227 20.3253 41.3534 20.994 40.2356 21.488C39.1196 21.9823 37.9062 22.2295 36.6034 22.2295C36.4349 22.2295 36.1387 22.2246 35.7203 22.216C35.3019 22.2074 34.8211 22.1642 34.2825 22.0914C33.7406 22.0158 33.1675 21.9039 32.5624 21.7541C31.9576 21.607 31.3831 21.401 30.8422 21.1393L35.6792 0.814979L40.0116 0.143555L38.2797 7.35593C38.6504 7.18885 39.0239 7.0594 39.3968 6.96516C39.7699 6.8723 40.1704 6.82397 40.5984 6.82397ZM36.9644 18.7926C37.6169 18.7926 38.2317 18.6321 38.8092 18.3169C39.3885 18.0014 39.8883 17.5754 40.3071 17.0448C40.7258 16.5118 41.0572 15.9115 41.2989 15.2408C41.5405 14.57 41.6627 13.8703 41.6627 13.1423C41.6627 12.2478 41.5132 11.5502 41.2153 11.0458C40.9174 10.5436 40.3661 10.2909 39.5656 10.2909C39.3032 10.2909 38.9653 10.3409 38.5462 10.4303C38.1257 10.5253 37.7494 10.7224 37.4122 11.0189L35.5681 18.6783C35.6792 18.698 35.7776 18.7166 35.8615 18.7342C35.9437 18.7532 36.0345 18.7667 36.1249 18.776C36.2205 18.7867 36.33 18.7922 36.4622 18.7922C36.5944 18.7922 36.7597 18.7926 36.9644 18.7926ZM50.2918 21.8404H46.1538L49.6484 7.13569H53.8146L50.2918 21.8404ZM52.3054 5.34407C51.7279 5.34407 51.2042 5.17216 50.7395 4.82765C50.2711 4.4852 50.0391 3.95807 50.0391 3.24764C50.0391 2.85687 50.1185 2.49026 50.2759 2.14437C50.4358 1.79916 50.6446 1.50194 50.9063 1.24925C51.1676 0.998629 51.4704 0.798409 51.8142 0.647555C52.1601 0.499116 52.5281 0.424897 52.9202 0.424897C53.4974 0.424897 54.0183 0.596809 54.4847 0.941324C54.9493 1.28757 55.183 1.81469 55.183 2.52133C55.183 2.91348 55.104 3.28147 54.9452 3.62668C54.7874 3.97188 54.5786 4.2691 54.3169 4.5218C54.0577 4.77276 53.7522 4.97229 53.409 5.12176C53.0628 5.27262 52.6962 5.34407 52.3054 5.34407ZM57.441 3.47203L61.7751 2.8006L60.7108 7.135H65.3525L64.5143 10.5449H59.9006L58.6717 15.6885C58.5585 16.1172 58.4943 16.5177 58.4763 16.8898C58.4559 17.2637 58.5032 17.5847 58.6151 17.855C58.7262 18.126 58.9261 18.3348 59.2161 18.4826C59.5047 18.6328 59.9179 18.7084 60.4599 18.7084C60.9062 18.7084 61.3412 18.6659 61.7616 18.5817C62.1797 18.4988 62.6033 18.3835 63.032 18.2327L63.3406 21.421C62.7814 21.626 62.1759 21.8024 61.5234 21.9509C60.87 22.1014 60.0964 22.1739 59.2023 22.1739C57.9167 22.1739 56.9201 21.983 56.21 21.6029C55.501 21.2201 54.9997 20.6971 54.6998 20.035C54.4039 19.3753 54.2717 18.6148 54.3086 17.758C54.347 16.8991 54.4764 15.9964 54.6998 15.0457L57.441 3.47203ZM65.1702 15.9685C65.1702 14.7019 65.3753 13.5075 65.785 12.3894C66.1941 11.2702 66.7834 10.2916 67.548 9.45167C68.3099 8.61593 69.2381 7.95383 70.3307 7.46778C71.4181 6.98449 72.6356 6.74078 73.9775 6.74078C74.8173 6.74078 75.5675 6.82017 76.2275 6.97931C76.8903 7.13983 77.4899 7.3473 78.0322 7.60759L76.6052 10.8525C76.2323 10.7013 75.8454 10.5681 75.4453 10.4472C75.0448 10.324 74.556 10.2646 73.9778 10.2646C72.5966 10.2646 71.5047 10.7407 70.6921 11.6896C69.8826 12.6393 69.4749 13.9176 69.4749 15.5211C69.4749 16.4714 69.68 17.2399 70.0915 17.8277C70.5009 18.4156 71.2572 18.708 72.3553 18.708C72.8973 18.708 73.4203 18.6514 73.9212 18.5409C74.4259 18.4291 74.8715 18.2882 75.264 18.1219L75.573 21.4483C75.0497 21.6512 74.4725 21.8345 73.8394 21.9951C73.2049 22.1501 72.4496 22.2305 71.5738 22.2305C70.4177 22.2305 69.439 22.0613 68.6385 21.7282C67.8376 21.3899 67.1758 20.9408 66.6546 20.3719C66.1306 19.8016 65.7543 19.1357 65.5216 18.3714C65.289 17.6078 65.1702 16.8056 65.1702 15.9685ZM83.5524 22.2305C82.5648 22.2305 81.707 22.08 80.9793 21.7821C80.2536 21.4842 79.6526 21.0661 79.1773 20.5241C78.7013 19.9849 78.345 19.346 78.1009 18.6096C77.8569 17.8737 77.7395 17.0586 77.7395 16.1656C77.7395 15.0454 77.9194 13.9255 78.2829 12.8088C78.6446 11.6896 79.1814 10.6841 79.8919 9.79032C80.5968 8.8952 81.4664 8.16337 82.4902 7.59274C83.5131 7.02592 84.6895 6.74078 86.011 6.74078C86.9807 6.74078 87.834 6.89163 88.5717 7.18954C89.306 7.48676 89.9108 7.90826 90.3889 8.44747C90.8618 8.98944 91.2212 9.62566 91.4628 10.363C91.7062 11.0976 91.8263 11.9147 91.8263 12.8085C91.8263 13.9252 91.6489 15.045 91.2968 16.1652C90.9443 17.2799 90.4213 18.2879 89.7309 19.1837C89.0419 20.0774 88.1803 20.8089 87.1453 21.3771C86.1118 21.9453 84.9132 22.2305 83.5524 22.2305ZM85.6206 10.265C85.0071 10.265 84.4648 10.4431 84.0005 10.7949C83.5345 11.1508 83.143 11.5982 82.8275 12.1377C82.5085 12.6797 82.2721 13.2707 82.1122 13.9131C81.9538 14.5569 81.8761 15.1655 81.8761 15.7437C81.8761 16.6768 82.0266 17.4035 82.3225 17.9265C82.6224 18.4467 83.1613 18.7084 83.9446 18.7084C84.5601 18.7084 85.0997 18.5316 85.5667 18.1761C86.03 17.8229 86.4218 17.3752 86.7397 16.8346C87.0566 16.2954 87.2952 15.7027 87.455 15.0592C87.6114 14.4175 87.6911 13.8054 87.6911 13.2282C87.6911 12.2975 87.5413 11.5692 87.2427 11.0469C86.9444 10.5266 86.4032 10.265 85.6206 10.265ZM96.3354 21.8404H92.194L95.6885 7.13569H99.8569L96.3354 21.8404ZM98.3459 5.34407C97.7687 5.34407 97.2454 5.17216 96.7814 4.82765C96.3154 4.4852 96.0813 3.95807 96.0813 3.24764C96.0813 2.85687 96.1618 2.49026 96.3195 2.14437C96.4773 1.79916 96.6875 1.50194 96.9492 1.24925C97.2091 0.998629 97.5146 0.798409 97.8578 0.647555C98.2016 0.499116 98.5696 0.424897 98.9604 0.424897C99.5389 0.424897 100.062 0.596809 100.527 0.941324C100.993 1.28757 101.228 1.81469 101.228 2.52133C101.228 2.91348 101.144 3.28147 100.988 3.62668C100.831 3.97188 100.621 4.2691 100.361 4.5218C100.098 4.77276 99.7965 4.97229 99.4526 5.12176C99.106 5.27262 98.7388 5.34407 98.3459 5.34407ZM102.839 7.80435C103.153 7.71253 103.504 7.60206 103.885 7.48193C104.268 7.3618 104.696 7.24995 105.174 7.14915C105.646 7.04525 106.18 6.96102 106.766 6.89577C107.353 6.82915 108.021 6.7967 108.764 6.7967C110.946 6.7967 112.45 7.43222 113.281 8.69947C114.111 9.96672 114.254 11.701 113.716 13.8993L111.812 21.839H107.647L109.492 14.0664C109.604 13.581 109.693 13.1119 109.758 12.6535C109.824 12.1992 109.82 11.7987 109.743 11.4521C109.67 11.1097 109.496 10.8294 109.228 10.6123C108.954 10.3986 108.542 10.2912 107.982 10.2912C107.443 10.2912 106.894 10.3492 106.334 10.4611L103.621 21.8387H99.4544L102.839 7.80435Z" fill="#8A87A9"/>
</svg>
