<svg width="31" height="31" viewBox="0 0 31 31" fill="none" xmlns="http://www.w3.org/2000/svg">
<circle cx="15.5" cy="15.5" r="15" fill="#0267FF"/>
<path fill-rule="evenodd" clip-rule="evenodd" d="M14.8763 6.14449C14.852 6.23395 14.7046 6.8043 14.5488 7.41201C14.3238 8.28927 14.2501 8.5169 14.1908 8.5169C14.1498 8.5169 13.4242 8.34846 12.5784 8.14262C11.7326 7.93682 11.0355 7.77272 11.0293 7.77794C11.0094 7.79463 10.6018 9.4221 10.6149 9.43224C10.6218 9.4376 10.7824 9.47675 10.9717 9.51929C11.9057 9.72915 12.2625 9.88361 12.403 10.1389C12.5591 10.4225 12.5646 10.3949 11.6113 14.1167C11.061 16.2648 10.6627 17.7353 10.6128 17.8024C10.5671 17.8638 10.4516 17.9518 10.356 17.998L10.1822 18.0819L9.57853 17.9411C9.24655 17.8636 8.93123 17.7891 8.87793 17.7754C8.80949 17.7579 8.77377 17.7746 8.75661 17.8323C8.74325 17.8773 8.56752 18.2786 8.36614 18.7241L8 19.5342L9.58872 19.9223C10.4625 20.1357 11.1908 20.3184 11.207 20.3282C11.2233 20.3379 11.0869 20.9273 10.9039 21.6378L10.5712 22.9297L11.3662 23.1209C11.8035 23.2261 12.1695 23.3029 12.1794 23.2916C12.1894 23.2803 12.3377 22.7186 12.509 22.0434C12.6804 21.3682 12.8332 20.8026 12.8487 20.7865C12.877 20.757 14.0343 21.0338 14.0838 21.0819C14.0984 21.0961 13.9654 21.6707 13.7882 22.3588C13.611 23.0469 13.478 23.617 13.4928 23.6257C13.5399 23.6536 15.0661 24.0143 15.0746 23.9996C15.0792 23.9917 15.2247 23.4229 15.3979 22.7354C15.5712 22.0479 15.7197 21.4733 15.7279 21.4585C15.7362 21.4437 15.9863 21.4717 16.2838 21.5207C16.6978 21.5888 17.0453 21.6103 17.7657 21.6121C18.5967 21.6141 18.7497 21.6029 19.074 21.5164C19.7086 21.3472 20.0805 21.1401 20.5248 20.7085C20.8644 20.3786 20.9529 20.259 21.1555 19.856C21.4642 19.242 21.62 18.7029 21.6522 18.1373C21.7096 17.1284 21.316 16.4058 20.3763 15.7945C20.0598 15.5886 19.9822 15.5193 20.0462 15.4996C20.8578 15.2494 21.3855 14.8248 21.6908 14.1761C22.1093 13.287 22.1025 12.2502 21.6732 11.5302C21.2731 10.8591 20.4249 10.2613 19.2346 9.81138C19.02 9.73027 18.8272 9.64924 18.8062 9.63134C18.7852 9.61344 18.9023 9.06908 19.0666 8.42168C19.2308 7.77428 19.372 7.20482 19.3803 7.15621C19.3938 7.07684 19.3156 7.04835 18.6177 6.87818C18.19 6.77389 17.8316 6.69689 17.8212 6.70702C17.8108 6.71711 17.6618 7.27045 17.4903 7.93655C17.3187 8.60266 17.171 9.15372 17.1621 9.16108C17.1406 9.17894 15.9427 8.90283 15.9127 8.87305C15.8997 8.8602 16.0313 8.29815 16.2049 7.62401C16.4158 6.80563 16.5043 6.3885 16.4715 6.36877C16.4309 6.34435 15.7346 6.16926 15.0692 6.01614C14.9268 5.98337 14.9186 5.98886 14.8763 6.14449ZM16.0361 10.8632C18.1239 11.328 19.0145 12.0353 18.8207 13.0747C18.7528 13.4386 18.6468 13.6348 18.397 13.8588C17.8445 14.354 16.9024 14.3968 15.244 14.0019C14.8857 13.9165 14.6478 13.8387 14.6585 13.8102C14.6683 13.7839 14.8479 13.0844 15.0574 12.2557C15.267 11.427 15.4574 10.749 15.4807 10.749C15.5039 10.749 15.7539 10.8004 16.0361 10.8632ZM14.8663 15.5674C16.8471 16.0137 17.8813 16.5459 18.2399 17.3035C18.3873 17.6149 18.3773 18.1403 18.2176 18.4759C17.9997 18.934 17.594 19.2179 17.0034 19.3256C16.6073 19.3979 15.5016 19.3488 14.9196 19.2331C14.4655 19.1429 13.4029 18.887 13.3768 18.8615C13.3578 18.8431 14.24 15.4364 14.2638 15.4364C14.2755 15.4364 14.5466 15.4953 14.8663 15.5674Z" fill="white"/>
</svg>
