<svg width="106" height="13" viewBox="0 0 106 13" fill="none" xmlns="http://www.w3.org/2000/svg">
<path d="M93.9384 10.7824C94.5072 11.3848 97.6316 14.272 102.536 10.9212C106.082 8.15961 105.993 2.17233 105.653 0.364236C105.534 0.627402 101.415 9.64732 93.9384 10.7824ZM105.652 0.362711C105.609 0.344778 101.046 -0.277227 96.5362 2.62764C93.7355 4.43152 93.3653 7.07166 93.4931 8.83088C100.05 8.09711 105.503 0.569613 105.652 0.362711Z" fill="#8A87A9"/>
<path d="M105.652 0.362711C105.608 0.344778 101.046 -0.277228 96.5361 2.62765C93.7355 4.43153 93.3653 7.07167 93.4931 8.8309C100.049 8.09713 105.503 0.569613 105.652 0.362711Z" fill="#8A87A9"/>
<path d="M7.31392 10.4304H2.20664V7.71025H7.31392C8.59074 7.71025 9.24301 8.32087 9.24301 9.11197C9.24301 9.87529 8.6046 10.4304 7.31388 10.4304L7.31392 10.4304ZM7.14737 6.25299H2.20664V3.96305H7.14737C8.49355 3.96305 9.02091 4.43491 9.02091 5.08722C9.02091 5.68393 8.41029 6.25299 7.14737 6.25299ZM8.45194 6.9469C10.6031 6.8775 11.3802 5.80888 11.3802 4.64311C11.3802 3.36629 10.3671 2.31152 7.89679 2.31152H0V12.0541H8.13274C10.159 12.0541 11.6717 11.2076 11.6717 9.38949C11.6717 8.09877 10.8251 7.0024 8.45194 6.9469ZM14.278 2.31152V12.0541H16.4846V2.31152H14.278ZM25.4333 4.15735H30.2908V2.31152H18.3693V4.15735H23.2267V12.0541H25.4333L25.4333 4.15735ZM32.1754 2.31152V12.0541H34.382V8.25147H39.5587V6.65544H34.382V3.9908H42.7923V2.31157L32.1754 2.31152ZM44.5798 2.31152V12.0541H46.7864V2.31152H44.5798ZM51.9602 4.68471L59.2742 12.0541H61.7722V2.31152H59.5934V9.33398L52.5709 2.31152H49.7675V12.0541H51.9602V4.68471ZM64.7532 2.31152V12.0541H75.5506V10.4165H66.9599V7.73796H72.1088V6.22523H66.9599V3.9908H75.5506V2.31157L64.7532 2.31152ZM90.3282 2.31152H87.4138L83.6944 5.73948L80.0028 2.31152H77.0467L82.2372 7.11345L76.8524 12.0541H79.7668L83.6666 8.45962L87.5526 12.0541H90.5226L85.1239 7.09955L90.3282 2.31152Z" fill="#8A87A9"/>
</svg>
