<svg width="62" height="28" viewBox="0 0 62 28" fill="none" xmlns="http://www.w3.org/2000/svg">
<path d="M0.5 23L1.17778 22.4961C1.85556 21.9923 3.21111 20.9846 4.56667 18.3367C5.92222 15.6888 7.27778 11.4007 8.63333 11.8549C9.98889 12.3091 11.3444 17.5055 12.7 16.8532C14.0556 16.2009 15.4111 9.69988 16.7667 7.1824C18.1222 4.66491 19.4778 6.13098 20.8333 9.2223C22.1889 12.3136 23.5444 17.0302 24.9 16.7315C26.2556 16.4329 27.6111 11.1189 28.9667 10.043C30.3222 8.96708 31.6778 12.1292 33.0333 11.4124C34.3889 10.6957 35.7444 6.1002 37.1 6.6781C38.4556 7.256 39.8111 13.0073 41.1667 15.2907C42.5222 17.5741 43.8778 16.3896 45.2333 14.6109C46.5889 12.8322 47.9444 10.4594 49.3 8.00625C50.6556 5.55315 52.0111 3.01984 53.3667 2.34767C54.7222 1.67551 56.0778 2.8645 57.4333 2.95008C58.7889 3.03566 60.1444 2.01783 60.8222 1.50891L61.5 1" stroke="#14C67A"/>
<path d="M1.17778 21.9047L0.5 22.3947V28H61.5V1L60.8222 1.49491C60.1444 1.98982 58.7889 2.97965 57.4333 2.89642C56.0778 2.8132 54.7222 1.65693 53.3667 2.31059C52.0111 2.96426 50.6556 5.42787 49.3 7.81348C47.9444 10.1991 46.5889 12.5067 45.2333 14.2364C43.8778 15.9662 42.5222 17.1181 41.1667 14.8975C39.8111 12.6769 38.4556 7.08387 37.1 6.52187C35.7444 5.95987 34.3889 10.4289 33.0333 11.1259C31.6778 11.8229 30.3222 8.74787 28.9667 9.7942C27.6111 10.8405 26.2556 16.0083 24.9 16.2987C23.5444 16.5892 22.1889 12.0023 20.8333 8.99607C19.4778 5.9898 18.1222 4.56408 16.7667 7.01229C15.4111 9.46051 14.0556 15.7827 12.7 16.417C11.3444 17.0514 9.98889 11.9979 8.63333 11.5562C7.27778 11.1145 5.92222 15.2846 4.56667 17.8597C3.21111 20.4347 1.85556 21.4147 1.17778 21.9047Z" fill="url(#paint0_linear_1_3618)" fill-opacity="0.3"/>
<defs>
<linearGradient id="paint0_linear_1_3618" x1="31" y1="1" x2="31" y2="28" gradientUnits="userSpaceOnUse">
<stop stop-color="#38EA29"/>
<stop offset="1" stop-color="#38EA29" stop-opacity="0"/>
</linearGradient>
</defs>
</svg>
