<svg width="107" height="24" viewBox="0 0 107 24" fill="none" xmlns="http://www.w3.org/2000/svg">
<path fill-rule="evenodd" clip-rule="evenodd" d="M9.06987 20.8542C9.88988 20.8542 10.657 20.7043 11.38 20.4133C11.38 20.4398 12.8525 22.7235 12.8789 22.7323C11.5757 23.4305 10.1162 23.7855 8.63782 23.7639C4.11454 23.7727 0.834503 20.7837 0.834503 16.0311C0.834503 11.2433 4.27325 8.27191 8.63782 8.27191C10.1809 8.27191 11.4065 8.60697 12.6321 9.25945L11.2213 11.6401C10.4806 11.3492 9.72235 11.2169 8.92879 11.2169C6.25715 11.2169 4.18508 12.9186 4.18508 16.0311C4.18508 18.9761 6.18661 20.8542 9.06987 20.8542ZM20.4707 8.27191C24.9146 8.27191 28.1329 11.4197 28.1329 16.0311C28.1329 20.6161 24.9146 23.7639 20.4618 23.7639C16.0532 23.7639 12.8349 20.6161 12.8349 16.0311C12.8349 11.4197 16.0532 8.27191 20.4707 8.27191ZM20.4707 11.1111C17.993 11.1111 16.1854 13.0244 16.1854 16.0311C16.1854 19.0114 17.993 20.9248 20.4707 20.9248C23.01 20.9248 24.7911 19.0114 24.7911 16.0311C24.7911 13.0244 23.01 11.1111 20.4707 11.1111ZM30.2402 23.4289V8.60697H33.5555V23.4201H30.2402V23.4289ZM29.7994 4.04842C29.8337 3.52109 30.0675 3.02659 30.4531 2.66528C30.8387 2.30397 31.3474 2.10291 31.8758 2.10291C32.4043 2.10291 32.9129 2.30397 33.2986 2.66528C33.6842 3.02659 33.9179 3.52109 33.9523 4.04842C33.9524 4.6021 33.7355 5.13378 33.3482 5.52939C32.9608 5.925 32.4338 6.15304 31.8802 6.16457C31.3267 6.15304 30.7997 5.925 30.4123 5.52939C30.025 5.13378 29.8081 4.6021 29.8082 4.04842H29.7994ZM36.4476 9.5416C38.6193 8.72534 40.9171 8.29563 43.2369 8.27191C47.0284 8.27191 49.4267 9.70913 49.4267 13.8885V23.4289H46.1555V14.1971C46.1555 12.0545 44.8241 11.2874 42.9812 11.2874C41.8085 11.2874 40.6358 11.4461 39.7629 11.7195V23.4201H36.4564V9.5416H36.4476ZM52.2041 0.671387H55.5195V9.00375C56.2248 8.63342 57.5915 8.27191 58.8965 8.27191C63.1817 8.27191 66.3912 11.0053 66.3912 15.7666C66.3912 20.5544 63.217 23.7639 57.7326 23.7639C55.59 23.7639 53.7119 23.3231 52.2041 22.794V0.671387ZM55.5195 20.6161C56.1543 20.8189 56.9919 20.9248 57.8296 20.9248C60.8716 20.9248 63.0494 19.2495 63.0494 15.8372C63.0494 12.9539 61.0038 11.2522 58.4997 11.2522C57.1947 11.2522 56.1896 11.5872 55.5195 11.9575V20.6161ZM75.9756 13.4918C75.9756 11.887 74.7588 11.1464 73.1188 11.1464C71.4171 11.1464 70.0768 11.6489 68.8424 12.3543V9.47106C70.3191 8.66855 71.9761 8.25583 73.6567 8.27191C76.9014 8.27191 79.2116 9.61214 79.2116 13.3242V23.1291C77.8008 23.4994 75.7993 23.7287 74.124 23.7287C70.2796 23.7287 67.4669 22.5648 67.4669 19.2142C67.4669 16.1987 70.0416 14.7262 74.3268 14.7262H75.9668V13.4918H75.9756ZM75.9756 16.9305H74.5648C72.2547 16.9305 70.7469 17.6094 70.7469 19.1172C70.7469 20.6514 72.1577 21.251 74.1592 21.251C74.6618 21.251 75.3672 21.1893 75.9668 21.0923V16.9393L75.9756 16.9305ZM81.6187 19.417C82.9108 20.4407 84.4948 21.0274 86.142 21.0923C87.6145 21.0923 88.5844 20.5897 88.5844 19.417C88.5844 18.209 87.7115 17.777 85.8069 17.2744C82.7209 16.569 81.4247 15.3346 81.4247 12.7511C81.4247 9.7444 83.6996 8.27191 86.7151 8.27191C88.3904 8.27191 89.7218 8.63342 90.965 9.40934V12.4513C89.7834 11.5082 88.3236 10.9814 86.8121 10.9524C85.3749 10.9524 84.6078 11.6578 84.6078 12.6277C84.6078 13.5976 85.2338 14.0913 86.9444 14.5675C90.3302 15.2993 91.7939 16.569 91.7939 19.2406C91.7939 22.362 89.422 23.7639 86.2125 23.7639C84.6027 23.7961 83.0155 23.381 81.6275 22.5648V19.417H81.6187ZM96.3348 16.7718V16.8335C96.5376 19.4787 98.8036 20.9248 101.123 20.9248C103.159 20.9248 104.632 20.4486 106.104 19.4787V22.3884C104.764 23.3319 102.789 23.7639 100.885 23.7639C96.2642 23.7639 93.1253 20.8189 93.1253 16.137C93.1253 11.4197 96.2025 8.27191 100.285 8.27191C104.605 8.27191 106.642 11.0494 106.642 15.0965V16.7718H96.326H96.3348ZM103.53 14.6292C103.459 12.3191 102.322 11.0494 100.179 11.0494C98.2746 11.0494 96.8726 12.3896 96.4318 14.6292H103.53Z" fill="#8A87A9"/>
</svg>
