<svg width="17" height="18" viewBox="0 0 17 18" fill="none" xmlns="http://www.w3.org/2000/svg">
<g clip-path="url(#clip0_1_3633)">
<path d="M16.2857 6.38889H17V13.6111H16.2857V15.7778C16.2857 15.9693 16.2105 16.153 16.0765 16.2885C15.9426 16.4239 15.7609 16.5 15.5714 16.5H2.71429C2.52485 16.5 2.34316 16.4239 2.20921 16.2885C2.07525 16.153 2 15.9693 2 15.7778V4.22222C2 4.03068 2.07525 3.84698 2.20921 3.71153C2.34316 3.57609 2.52485 3.5 2.71429 3.5H15.5714C15.7609 3.5 15.9426 3.57609 16.0765 3.71153C16.2105 3.84698 16.2857 4.03068 16.2857 4.22222V6.38889ZM14.8571 13.6111H10.5714C9.62423 13.6111 8.71582 13.2307 8.04605 12.5534C7.37627 11.8762 7 10.9577 7 10C7 9.04227 7.37627 8.12377 8.04605 7.44656C8.71582 6.76934 9.62423 6.38889 10.5714 6.38889H14.8571V4.94444H3.42857V15.0556H14.8571V13.6111ZM15.5714 12.1667V7.83333H10.5714C10.0031 7.83333 9.45806 8.06161 9.0562 8.46794C8.65434 8.87426 8.42857 9.42536 8.42857 10C8.42857 10.5746 8.65434 11.1257 9.0562 11.5321C9.45806 11.9384 10.0031 12.1667 10.5714 12.1667H15.5714ZM10.5714 9.27778H12.7143V10.7222H10.5714V9.27778Z" fill="#83868E"/>
</g>
<defs>
<clipPath id="clip0_1_3633">
<rect width="17" height="17" fill="white" transform="translate(0 0.5)"/>
</clipPath>
</defs>
</svg>
