<svg width="86" height="86" viewBox="0 0 86 86" fill="none" xmlns="http://www.w3.org/2000/svg">
<path fill-rule="evenodd" clip-rule="evenodd" d="M78.5307 30.1358H63.5133C56.5247 30.1481 50.8632 35.668 50.8506 42.482C50.8412 49.3113 56.5089 54.8559 63.5133 54.8651H78.5433V55.95C78.5433 67.8629 71.3214 74.9073 59.1001 74.9073H27.0637C14.8392 74.9073 7.61734 67.8629 7.61734 55.95V30.0036C7.61734 18.0908 14.8392 11.074 27.0637 11.074H59.0875C71.3088 11.074 78.5307 18.0908 78.5307 30.0036V30.1358ZM24.4252 30.1081H44.4263H44.4389H44.4641C45.9614 30.1019 47.1719 28.9125 47.1656 27.4495C47.1593 25.9896 45.9362 24.8094 44.4389 24.8155H24.4252C22.9373 24.8217 21.73 25.9988 21.7237 27.4526C21.7174 28.9125 22.9279 30.1019 24.4252 30.1081Z" fill="#0267FF"/>
<path d="M57.3981 44.043C58.1397 47.4162 61.0972 49.7894 64.4736 49.7277H75.9988C77.4037 49.7277 78.5433 48.5642 78.5433 47.1261V38.1484C78.5402 36.7134 77.4037 35.5468 75.9988 35.5437H64.2023C60.3616 35.556 57.2595 38.7441 57.2655 42.6727C57.2655 43.1326 57.3107 43.5924 57.3981 44.043Z" fill="#D70B4D"/>
<circle cx="64.3581" cy="42.6364" r="3.5463" fill="#1B1B2C"/>
</svg>
