<svg width="86" height="86" viewBox="0 0 86 86" fill="none" xmlns="http://www.w3.org/2000/svg">
<path fill-rule="evenodd" clip-rule="evenodd" d="M54.0555 16.8007C54.0555 24.677 60.4498 31.062 68.3377 31.062C69.2062 31.0577 70.0725 30.9743 70.9259 30.8129V59.0864C70.9259 70.9812 63.9096 78.0184 51.9973 78.0184H26.0524C14.109 78.0184 7.09259 70.9812 7.09259 59.0864V33.1794C7.09259 21.2846 14.109 14.1851 26.0524 14.1851H54.3049C54.1373 15.0468 54.0537 15.9228 54.0555 16.8007ZM46.6337 52.8276L56.7684 39.7496V39.6873C57.6361 38.5214 57.4147 36.8775 56.2695 35.9819C55.7152 35.554 55.0109 35.3687 54.3174 35.4685C53.6239 35.5683 53.0006 35.9445 52.5898 36.5112L44.0454 47.503L34.3161 39.843C33.7606 39.4102 33.054 39.2192 32.3557 39.3129C31.6575 39.4067 31.0265 39.7773 30.6052 40.3412L20.1274 53.8552C19.7591 54.3143 19.5609 54.8862 19.5661 55.4744C19.5053 56.6631 20.256 57.743 21.3926 58.1018C22.5292 58.4605 23.7651 58.0078 24.3996 57.0002L33.1623 45.6658L42.8916 53.2947C43.445 53.7408 44.1563 53.9431 44.862 53.855C45.5678 53.7669 46.2073 53.3961 46.6337 52.8276Z" fill="#0267FF"/>
<circle cx="69.1528" cy="15.9583" r="8.86574" fill="#D70B4D"/>
</svg>
