<svg width="86" height="86" viewBox="0 0 86 86" fill="none" xmlns="http://www.w3.org/2000/svg">
<path fill-rule="evenodd" clip-rule="evenodd" d="M27.9949 31.3367H58.0051C66.3653 31.3367 73.1435 37.9654 73.1435 46.1412V63.6488C73.1435 71.8246 66.3653 78.4533 58.0051 78.4533H27.9949C19.6347 78.4533 12.8565 71.8246 12.8565 63.6488V46.1412C12.8565 37.9654 19.6347 31.3367 27.9949 31.3367ZM42.9818 61.8903C44.7476 61.8903 46.1529 60.516 46.1529 58.7892V50.9658C46.1529 49.2742 44.7476 47.8998 42.9818 47.8998C41.2521 47.8998 39.8468 49.2742 39.8468 50.9658V58.7892C39.8468 60.516 41.2521 61.8903 42.9818 61.8903Z" fill="#0267FF"/>
<path d="M62.5856 26.6632V29.2191C61.3244 28.8667 59.9911 28.6905 58.6218 28.6905H56.2795V26.6632C56.2795 19.5094 50.3336 13.6947 43.0185 13.6947C35.7033 13.6947 29.7575 19.4742 29.7215 26.5928V28.6905H27.4152C26.0098 28.6905 24.6765 28.8667 23.4153 29.2544V26.6632C23.4513 16.0911 32.2079 7.52759 42.9464 7.52759C53.8291 7.52759 62.5856 16.0911 62.5856 26.6632Z" fill="#D70B4D"/>
</svg>
