<svg width="23" height="18" viewBox="0 0 23 18" fill="none" xmlns="http://www.w3.org/2000/svg">
<path d="M19.8615 0.300781H2.30704C1.10017 0.300781 0.112732 1.28822 0.112732 2.49508V15.6609C0.112732 16.8678 1.10017 17.8552 2.30704 17.8552H19.8615C21.0683 17.8552 22.0558 16.8678 22.0558 15.6609V2.49508C22.0558 1.28822 21.0683 0.300781 19.8615 0.300781ZM19.4226 4.96368L12.2472 9.45103C11.5341 9.90086 10.6344 9.90086 9.92127 9.45103L2.7459 4.96368C2.63588 4.90192 2.53954 4.81848 2.46271 4.71841C2.38587 4.61834 2.33014 4.50373 2.29889 4.38149C2.26763 4.25926 2.26151 4.13196 2.28088 4.0073C2.30024 3.88263 2.34471 3.76319 2.41157 3.6562C2.47844 3.54922 2.56632 3.45691 2.66989 3.38487C2.77347 3.31283 2.89058 3.26255 3.01414 3.23709C3.13771 3.21162 3.26516 3.21149 3.38878 3.2367C3.51239 3.26192 3.62961 3.31195 3.73333 3.38378L11.0842 7.98084L18.4352 3.38378C18.5389 3.31195 18.6561 3.26192 18.7797 3.2367C18.9033 3.21149 19.0308 3.21162 19.1544 3.23709C19.2779 3.26255 19.395 3.31283 19.4986 3.38487C19.6022 3.45691 19.6901 3.54922 19.7569 3.6562C19.8238 3.76319 19.8683 3.88263 19.8876 4.0073C19.907 4.13196 19.9009 4.25926 19.8696 4.38149C19.8384 4.50373 19.7826 4.61834 19.7058 4.71841C19.629 4.81848 19.5326 4.90192 19.4226 4.96368Z" fill="#0267FF"/>
</svg>
