<svg width="107" height="29" viewBox="0 0 107 29" fill="none" xmlns="http://www.w3.org/2000/svg">
<path d="M14.4484 0.513672C6.77873 0.513672 0.558502 6.73315 0.558502 14.4032C0.558502 15.9366 0.80692 17.4113 1.26612 18.7908H5.41996V7.10427L14.4484 16.1327L23.4769 7.10427V18.7908H27.6311C28.0903 17.4113 28.3387 15.9366 28.3387 14.4032C28.3387 6.73315 22.1185 0.513672 14.4484 0.513672Z" fill="#8A87A9"/>
<path d="M8.43141 14.2681V21.6216H2.57852C5.01679 25.6219 9.42057 28.2935 14.4473 28.2935C19.474 28.2935 23.8781 25.6219 26.316 21.6216H20.4635V14.2681L14.4473 20.2843L8.43141 14.2681Z" fill="#8A87A9"/>
<path d="M103.054 18.3581C102.319 19.1143 101.429 19.491 100.382 19.491C99.4564 19.491 98.6385 19.2005 97.9226 18.6163C97.0024 17.8714 96.5428 16.8571 96.5428 15.5736C96.5428 14.4245 96.9087 13.4748 97.6404 12.7296C98.3694 11.9817 99.2705 11.6102 100.344 11.6102C101.405 11.6102 102.306 11.9926 103.046 12.7563C103.788 13.5204 104.159 14.4546 104.159 15.56C104.159 16.6685 103.791 17.5993 103.054 18.3581ZM104.596 11.2304C103.417 10.0444 102.007 9.44971 100.366 9.44971C99.2841 9.44971 98.2727 9.72184 97.3366 10.265C96.3971 10.8085 95.6598 11.5454 95.1246 12.4766C94.589 13.4074 94.3202 14.4275 94.3202 15.5356C94.3202 17.1905 94.8957 18.6189 96.0479 19.8223C97.1989 21.0275 98.6442 21.6274 100.382 21.6274C102.042 21.6274 103.455 21.0436 104.62 19.8704C105.785 18.6999 106.366 17.2662 106.366 15.5736C106.366 13.8674 105.776 12.4202 104.596 11.2304Z" fill="#8A87A9"/>
<path d="M56.4209 18.3581C55.6866 19.1143 54.796 19.491 53.7489 19.491C52.8237 19.491 52.0058 19.2005 51.2899 18.6163C50.3697 17.8714 49.9101 16.8571 49.9101 15.5736C49.9101 14.4245 50.2759 13.4748 51.0076 12.7296C51.7367 11.9817 52.6378 11.6102 53.7116 11.6102C54.7719 11.6102 55.6734 11.9926 56.413 12.7563C57.1556 13.5204 57.5267 14.4546 57.5267 15.56C57.5267 16.6685 57.1586 17.5993 56.4209 18.3581ZM57.963 11.2304C56.7841 10.0444 55.3745 9.44971 53.7331 9.44971C52.6513 9.44971 51.64 9.72184 50.7039 10.265C49.7644 10.8085 49.0271 11.5454 48.4918 12.4766C47.9562 13.4074 47.6875 14.4275 47.6875 15.5356C47.6875 17.1905 48.263 18.6189 49.4151 19.8223C50.5661 21.0275 52.0115 21.6274 53.7489 21.6274C55.4092 21.6274 56.8221 21.0436 57.987 19.8704C59.152 18.6999 59.7331 17.2662 59.7331 15.5736C59.7331 13.8674 59.1437 12.4202 57.963 11.2304Z" fill="#8A87A9"/>
<path d="M90.1054 13.9201C89.8258 14.1151 89.6936 14.211 88.9537 14.211H86.0419V11.7201H88.8633C89.429 11.7201 89.5292 11.7626 89.761 11.8499C89.9921 11.9346 90.1758 12.0762 90.3143 12.2708C90.4528 12.4657 90.5206 12.6972 90.5206 12.9626C90.5206 13.409 90.3821 13.7281 90.1054 13.9201ZM90.4555 16.2134C91.2267 15.9364 91.8056 15.5299 92.1895 14.9936C92.5738 14.4542 92.7631 13.7872 92.7631 12.9855C92.7631 12.2256 92.5911 11.5646 92.2433 11.0083C91.8959 10.452 91.4356 10.0538 90.8653 9.81368C90.2947 9.57354 89.3372 9.45234 87.9901 9.45234H83.726V21.6248H86.0419V16.4705H88.0631L90.8032 21.6248H93.3363L90.4555 16.2134ZM73.3443 9.44971H81.2365V11.7175H75.6463V14.2088H81.2365V16.437H75.6463V19.3458H81.2365V21.6225H73.3443V9.44971ZM61.116 9.44971H63.3333L68.5554 17.4593V9.44971H70.8713V21.6222H68.6457L63.432 13.6382V21.6222H61.116V9.44971Z" fill="#8A87A9"/>
<path d="M34.166 9.44922H36.4338L39.2465 17.9395L42.1022 9.44922H44.3361L46.387 21.6221H44.1528L42.8452 13.9343L40.2553 21.6221H38.213L35.6573 13.9343L34.3241 21.6221H32.0647L34.166 9.44922Z" fill="#8A87A9"/>
</svg>
