<svg width="28" height="28" viewBox="0 0 28 28" fill="none" xmlns="http://www.w3.org/2000/svg">
<path d="M22.8063 23.9699C22.9892 23.9699 23.1812 23.9652 23.3823 23.9557C23.5835 23.9461 23.7755 23.9326 23.9583 23.9151V17.4967L18.4726 16.3996L15.2908 19.5813C13.9011 18.7402 12.6255 17.7436 11.464 16.5916C10.3025 15.4396 9.33807 14.2053 8.57079 12.8887L11.6977 9.73438L10.6828 4.22119H4.26447C4.2279 4.40405 4.20961 4.59605 4.20961 4.7972V5.3732C4.20961 7.73208 4.73515 10.0317 5.78622 12.2721C6.83729 14.5125 8.22702 16.5009 9.9554 18.2373C11.6838 19.9745 13.6678 21.3642 15.9074 22.4065C18.1471 23.4488 20.4467 23.9699 22.8063 23.9699Z" fill="#0267FF"/>
</svg>
