<svg width="11" height="20" viewBox="0 0 11 20" fill="none" xmlns="http://www.w3.org/2000/svg">
<path d="M0.483684 19.292C0.174942 18.94 0.0205712 18.5501 0.0205712 18.1222C0.0205712 17.6943 0.174942 17.3216 0.483684 17.0038L7.20634 9.90005L0.444159 2.78635C0.135418 2.49631 -0.0123661 2.1166 0.000808806 1.64721C0.0139837 1.17785 0.174942 0.794828 0.483684 0.498144C0.786128 0.152741 1.14099 -0.0130406 1.54828 0.000799844C1.95557 0.0146403 2.31044 0.180421 2.61289 0.498144L10.5084 8.79251C10.6465 8.93753 10.7581 9.10664 10.8435 9.29982C10.9288 9.49298 10.9715 9.69306 10.9715 9.90005C10.9715 10.1347 10.9288 10.347 10.8435 10.5369C10.7581 10.7267 10.6465 10.8942 10.5084 11.0392L2.65241 19.292C2.34997 19.6098 1.98851 19.7617 1.56805 19.7479C1.14758 19.734 0.786128 19.5821 0.483684 19.292Z" fill="white"/>
</svg>
