<svg width="109" height="31" viewBox="0 0 109 31" fill="none" xmlns="http://www.w3.org/2000/svg">
<path d="M21.6373 18.0615C20.7256 17.5351 19.699 17.3826 18.6823 17.3471C17.8289 17.3173 16.5561 16.7706 16.5561 15.2186C16.5561 14.0623 17.4935 13.1316 18.6826 13.0901C19.6994 13.0546 20.7258 12.9018 21.6373 12.3756C22.456 11.903 23.1358 11.2231 23.6084 10.4045C24.0811 9.58579 24.3299 8.65713 24.3299 7.71182C24.3299 6.7665 24.081 5.83785 23.6084 5.01919C23.1357 4.20053 22.4559 3.52072 21.6372 3.04808C20.8185 2.57544 19.8898 2.32663 18.9445 2.32666C17.9992 2.32669 17.0706 2.57555 16.2519 3.04824C15.4333 3.52092 14.7535 4.20078 14.2808 5.01946C13.8082 5.83815 13.5594 6.76682 13.5595 7.71213C13.5595 8.75554 13.9306 9.7156 14.4041 10.6062C14.8023 11.3552 15.0038 12.7454 13.638 13.5339C12.622 14.1205 11.3539 13.7491 10.7205 12.7355C10.1855 11.8792 9.53958 11.077 8.63538 10.5549C7.81674 10.0822 6.88812 9.83342 5.94284 9.83342C4.99757 9.83343 4.06895 10.0823 3.25032 10.5549C2.43169 11.0275 1.75189 11.7074 1.27926 12.526C0.806622 13.3446 0.5578 14.2732 0.5578 15.2185C0.5578 16.1638 0.806622 17.0924 1.27926 17.9111C1.75189 18.7297 2.43169 19.4095 3.25032 19.8821C4.06895 20.3548 4.99757 20.6036 5.94284 20.6036C6.88812 20.6036 7.81674 20.3548 8.63538 19.8822C9.53934 19.3602 10.1852 18.5585 10.7199 17.7029C11.159 17.0002 12.2556 16.1047 13.6379 16.9034C14.6524 17.4896 14.966 18.7738 14.4036 19.8317C13.9302 20.722 13.5596 21.682 13.5596 22.7252C13.5596 23.6704 13.8084 24.5991 14.281 25.4177C14.7537 26.2364 15.4335 26.9162 16.2521 27.3888C17.0708 27.8615 17.9994 28.1103 18.9447 28.1103C19.89 28.1103 20.8186 27.8615 21.6372 27.3888C22.4559 26.9162 23.1357 26.2364 23.6083 25.4177C24.081 24.5991 24.3298 23.6705 24.3298 22.7252C24.3298 21.7799 24.0809 20.8513 23.6083 20.0326C23.1356 19.214 22.4558 18.5342 21.6372 18.0615H21.6373Z" fill="#8A87A9"/>
<path d="M40.8423 11.4918C40.5627 11.3986 39.9726 11.3365 39.3825 11.3365C37.6121 11.3365 35.7174 12.7706 35.7174 14.541V22.9836H31.6799V7.92009H35.5622V9.44183C36.4629 8.32378 38.109 7.60944 39.9415 7.60944C40.3997 7.61272 40.8569 7.65426 41.3082 7.73363L40.8423 11.4918ZM45.4076 0C46.8675 0 48.0477 1.11817 48.0477 2.57788C48.0477 4.03771 46.8676 5.15575 45.4076 5.15575C43.9478 5.15575 42.7676 4.03771 42.7676 2.57788C42.7676 1.11829 43.9479 0 45.4076 0ZM47.4265 22.9836H43.3888V7.92009H47.4265V22.9836ZM59.3535 7.60871C57.7511 7.58844 56.1917 8.12708 54.9434 9.13203V7.91997H51.06V30.437H55.0981V21.9279C56.2464 22.835 57.6728 23.3179 59.136 23.2948C61.3725 23.2948 63.515 22.3001 64.8506 20.7471C66.0314 19.3802 66.7444 17.5176 66.7444 15.4674C66.7444 11.0258 63.4525 7.60871 59.3535 7.60871ZM58.8628 19.6288C56.3546 19.6288 54.7061 17.898 54.7061 15.4805C54.7061 13.063 56.3546 11.3321 58.8627 11.3321C61.0036 11.3321 62.7394 13.1897 62.7394 15.4806C62.7394 17.7713 61.0036 19.6289 58.8627 19.6289L58.8628 19.6288ZM91.2503 22.9836H87.2126V0.931704H91.2503V22.9836ZM107.712 20.592C106.252 22.3313 103.86 23.2942 101.531 23.2942C97.0274 23.2942 93.6419 20.1884 93.6419 15.4674C93.6419 11.2743 96.4993 7.60944 100.972 7.60944C105.134 7.60944 108.084 11.119 108.084 15.312C108.087 15.6971 108.055 16.0816 107.991 16.4612H97.5553C97.7727 18.5731 99.4809 20.033 101.624 20.033C103.332 20.033 104.699 19.0701 105.413 18.2936L107.712 20.592ZM103.953 13.5107C103.829 12.1751 102.618 10.8706 100.972 10.8706C99.2945 10.8706 97.9281 12.144 97.7416 13.5107H103.953ZM77.43 7.60871C75.8276 7.58844 74.2682 8.12708 73.0199 9.13203V7.91997H69.1366V30.437H73.1746V21.9279C74.3229 22.8351 75.7493 23.3179 77.2126 23.2948C79.4491 23.2948 81.5915 22.3001 82.9272 20.7471C84.1078 19.3802 84.821 17.5176 84.821 15.4674C84.821 11.0258 81.529 7.60871 77.43 7.60871ZM76.9393 19.6288C74.4311 19.6288 72.7826 17.898 72.7826 15.4805C72.7826 13.063 74.4312 11.332 76.9393 11.332C79.0802 11.332 80.8159 13.1897 80.8159 15.4805C80.8159 17.7712 79.0802 19.6289 76.9393 19.6289V19.6288Z" fill="#8A87A9"/>
</svg>
