<svg width="192" height="32" viewBox="0 0 192 32" fill="none" xmlns="http://www.w3.org/2000/svg">
<path d="M15.093 1.95296C15.4514 1.18123 16.5486 1.18123 16.907 1.95296L20.2987 9.25626C20.4444 9.57002 20.7419 9.78618 21.0853 9.8278L29.0793 10.7966C29.924 10.899 30.263 11.9425 29.6398 12.5218L23.742 18.0043C23.4887 18.2399 23.375 18.5896 23.4416 18.9291L24.9904 26.8312C25.1541 27.6662 24.2665 28.3111 23.5229 27.8974L16.4862 23.9825C16.1839 23.8143 15.8161 23.8143 15.5138 23.9825L8.47711 27.8974C7.73355 28.3111 6.84594 27.6662 7.00961 26.8312L8.55844 18.9291C8.62498 18.5896 8.51134 18.2399 8.25797 18.0043L2.36021 12.5218C1.737 11.9425 2.07603 10.899 2.92074 10.7966L10.9147 9.8278C11.2581 9.78618 11.5556 9.57002 11.7013 9.25626L15.093 1.95296Z" fill="#0267FF"/>
<path d="M55.093 1.95296C55.4514 1.18123 56.5486 1.18123 56.907 1.95296L60.2987 9.25626C60.4444 9.57002 60.7419 9.78618 61.0853 9.8278L69.0793 10.7966C69.924 10.899 70.263 11.9425 69.6398 12.5218L63.742 18.0043C63.4887 18.2399 63.375 18.5896 63.4416 18.9291L64.9904 26.8312C65.1541 27.6662 64.2665 28.3111 63.5229 27.8974L56.4862 23.9825C56.1839 23.8143 55.8161 23.8143 55.5138 23.9825L48.4771 27.8974C47.7335 28.3111 46.8459 27.6662 47.0096 26.8312L48.5584 18.9291C48.625 18.5896 48.5113 18.2399 48.258 18.0043L42.3602 12.5218C41.737 11.9425 42.076 10.899 42.9207 10.7966L50.9147 9.8278C51.2581 9.78618 51.5556 9.57002 51.7013 9.25626L55.093 1.95296Z" fill="#0267FF"/>
<path d="M95.093 1.95296C95.4514 1.18123 96.5486 1.18123 96.907 1.95296L100.299 9.25626C100.444 9.57002 100.742 9.78618 101.085 9.8278L109.079 10.7966C109.924 10.899 110.263 11.9425 109.64 12.5218L103.742 18.0043C103.489 18.2399 103.375 18.5896 103.442 18.9291L104.99 26.8312C105.154 27.6662 104.266 28.3111 103.523 27.8974L96.4862 23.9825C96.1839 23.8143 95.8161 23.8143 95.5138 23.9825L88.4771 27.8974C87.7335 28.3111 86.8459 27.6662 87.0096 26.8312L88.5584 18.9291C88.625 18.5896 88.5113 18.2399 88.258 18.0043L82.3602 12.5218C81.737 11.9425 82.076 10.899 82.9207 10.7966L90.9147 9.8278C91.2581 9.78618 91.5556 9.57002 91.7013 9.25626L95.093 1.95296Z" fill="#0267FF"/>
<path d="M135.093 1.95296C135.451 1.18123 136.549 1.18123 136.907 1.95296L140.299 9.25626C140.444 9.57002 140.742 9.78618 141.085 9.8278L149.079 10.7966C149.924 10.899 150.263 11.9425 149.64 12.5218L143.742 18.0043C143.489 18.2399 143.375 18.5896 143.442 18.9291L144.99 26.8312C145.154 27.6662 144.266 28.3111 143.523 27.8974L136.486 23.9825C136.184 23.8143 135.816 23.8143 135.514 23.9825L128.477 27.8974C127.734 28.3111 126.846 27.6662 127.01 26.8312L128.558 18.9291C128.625 18.5896 128.511 18.2399 128.258 18.0043L122.36 12.5218C121.737 11.9425 122.076 10.899 122.921 10.7966L130.915 9.8278C131.258 9.78618 131.556 9.57002 131.701 9.25626L135.093 1.95296Z" fill="#0267FF"/>
<path d="M175.093 1.95296C175.451 1.18123 176.549 1.18123 176.907 1.95296L180.299 9.25626C180.444 9.57002 180.742 9.78618 181.085 9.8278L189.079 10.7966C189.924 10.899 190.263 11.9425 189.64 12.5218L183.742 18.0043C183.489 18.2399 183.375 18.5896 183.442 18.9291L184.99 26.8312C185.154 27.6662 184.266 28.3111 183.523 27.8974L176.486 23.9825C176.184 23.8143 175.816 23.8143 175.514 23.9825L168.477 27.8974C167.734 28.3111 166.846 27.6662 167.01 26.8312L168.558 18.9291C168.625 18.5896 168.511 18.2399 168.258 18.0043L162.36 12.5218C161.737 11.9425 162.076 10.899 162.921 10.7966L170.915 9.8278C171.258 9.78618 171.556 9.57002 171.701 9.25626L175.093 1.95296Z" fill="#0267FF"/>
</svg>
