<svg width="105" height="28" viewBox="0 0 105 28" fill="none" xmlns="http://www.w3.org/2000/svg">
<path d="M22.3403 22.6231C20.737 24.1779 18.4048 25.1496 16.5586 25.2953C15.2467 25.4411 13.8863 25.4411 12.5745 25.2953C10.6311 25.0524 9.22206 24.518 7.81307 23.9835C8.49327 23.3033 9.22206 22.3802 9.51358 21.5542C9.70792 21.0683 9.65934 20.5339 9.46499 20.0966C7.95883 17.0357 8.63903 13.3917 11.0683 11.011C12.8174 9.26187 15.2467 8.48449 17.7246 8.77601C19.5223 9.01894 21.1742 9.79632 22.4861 11.0596C25.5956 14.2177 25.4984 19.5136 22.3403 22.6231ZM24.2352 9.06753C23.1177 7.95004 21.8059 7.12407 20.3969 6.58963C21.2228 4.2089 24.138 3.33435 24.138 3.33435C24.138 3.33435 17.4331 -0.163867 10.048 1.24513C7.57014 1.63383 5.18942 3.14 3.48891 5.13204C-0.252222 9.45622 0.233638 16.0154 4.60639 19.7079C5.28659 20.291 6.79276 21.1655 6.79276 21.2141C5.82104 23.7406 2.66294 24.4208 2.66294 24.4208C2.66294 24.4208 6.84135 27.0445 12.4287 27.7247C13.9349 27.919 15.4897 27.9676 17.093 27.7732C19.6681 27.5789 22.2431 26.1699 24.2352 24.275C28.4136 20.0966 28.4622 13.2945 24.2352 9.06753Z" fill="#8A87A9"/>
<path d="M95.7317 8.13606C95.7317 7.31009 95.0029 6.62988 94.2256 6.62988C93.3996 6.62988 92.7194 7.31009 92.7194 8.13606C92.7194 8.96203 93.4482 9.64223 94.2256 9.64223C95.0029 9.64223 95.7317 9.01061 95.7317 8.13606ZM95.4402 11.1484H93.0109V21.886H95.4402V11.1484ZM83.3908 12.3631C82.8078 11.5371 81.7389 10.9541 80.5243 10.9541C79.3096 10.9541 78.3379 11.3913 77.8034 12.0715V11.197H75.3741V21.9346H77.8034V14.6952C78.0464 13.6263 78.8723 13.0919 79.7469 13.0919C80.9615 13.0919 81.5446 13.9664 81.5446 15.2782V21.886H83.9739V14.6952C84.2168 13.6263 85.0428 13.0919 85.9173 13.0919C87.132 13.0919 87.715 13.9664 87.715 15.2782V21.886H90.1443V14.9381C90.1443 12.5088 88.8325 10.9541 86.6461 10.9541C85.1399 10.9541 84.1196 11.4885 83.3908 12.3631ZM68.5235 12.9947C67.1631 12.9947 66.1913 13.8207 65.8998 15.3754H70.807C70.7584 14.0636 70.0296 12.9947 68.5235 12.9947ZM70.8556 18.5821H73.0906C72.7019 20.7199 71.1471 22.1775 68.5235 22.1775C65.5111 22.1775 63.4219 19.8939 63.4219 16.5901C63.4219 13.3834 65.5597 10.9541 68.4749 10.9541C71.5358 10.9541 73.1877 13.0919 73.1877 16.25V17.1245H65.8026C65.8998 19.0194 66.9687 20.1369 68.5235 20.1369C69.7381 20.1369 70.6127 19.6024 70.8556 18.5821ZM57.2515 12.9947C55.8911 12.9947 54.9193 13.8207 54.6278 15.3754H59.535C59.4864 14.0636 58.7577 12.9947 57.2515 12.9947ZM59.5836 18.5821H61.8186C61.4299 20.7199 59.8751 22.1775 57.2515 22.1775C54.2391 22.1775 52.1499 19.8939 52.1499 16.5901C52.1499 13.3834 54.2877 10.9541 57.2029 10.9541C60.2638 10.9541 61.9158 13.0919 61.9158 16.25V17.1245H54.5307C54.6278 19.0194 55.6967 20.1369 57.2515 20.1369C58.4661 20.1369 59.3407 19.6024 59.5836 18.5821ZM99.3757 19.0194C99.3757 21.1572 100.736 22.1775 102.68 22.1775C103.457 22.1775 104.089 22.0317 104.526 21.7888V19.6024C104.186 19.8454 103.603 20.0397 103.117 20.0397C102.291 20.0397 101.805 19.651 101.805 18.7765V13.189H104.234V11.197H101.805V8.3304H99.3757V9.98234C99.3757 10.8569 98.6469 11.197 98.161 11.197H97.6752V13.189H99.3757V19.0194ZM45.445 19.0194C45.445 21.1572 46.8055 22.1775 48.7489 22.1775C49.5263 22.1775 50.1579 22.0317 50.5952 21.7888V19.6024C50.2551 19.8454 49.672 20.0397 49.1862 20.0397C48.3602 20.0397 47.8744 19.651 47.8744 18.7765V13.189H50.3037V11.197H47.8744V8.3304H45.445V9.98234C45.445 10.8569 44.7163 11.197 44.2304 11.197H43.7445V13.189H45.445V19.0194ZM33.6872 18.825C34.0273 20.9143 35.7764 22.1775 38.3029 22.1775C40.7322 22.1775 42.5299 20.8657 42.5299 18.7279C42.5299 17.1731 41.6067 16.1042 39.7605 15.6669L37.4769 15.1325C36.6995 14.9381 36.3594 14.6466 36.3594 14.1608C36.3594 13.3348 37.234 12.9461 38.1085 12.9461C39.226 12.9461 39.8576 13.432 40.1006 14.1122H42.4813C42.0926 12.1687 40.6836 10.9541 38.1571 10.9541C35.7764 10.9541 34.0759 12.3631 34.0759 14.3065C34.0759 16.0556 35.2419 16.8816 36.7481 17.2703L38.9831 17.8047C39.9062 17.9991 40.2463 18.3392 40.2463 18.9222C40.2463 19.7482 39.5175 20.1855 38.4001 20.1855C37.3312 20.1855 36.5052 19.7482 36.2623 18.825H33.6872Z" fill="#8A87A9"/>
</svg>
