<svg width="105" height="29" viewBox="0 0 105 29" fill="none" xmlns="http://www.w3.org/2000/svg">
<path d="M14.5193 28.8073C22.4742 28.8073 28.9229 22.3586 28.9229 14.4036C28.9229 6.44873 22.4742 0 14.5193 0C6.56439 0 0.115662 6.44873 0.115662 14.4036C0.115662 22.3586 6.56439 28.8073 14.5193 28.8073Z" fill="#252333"/>
<path d="M16.0552 15.7331V15.7308C15.9556 15.7378 15.4415 15.7679 14.2975 15.7679C13.3828 15.7679 12.7414 15.7424 12.5144 15.7308V15.7331C8.9969 15.578 6.37321 14.9666 6.37321 14.2326C6.37321 13.5008 8.99921 12.8871 12.5144 12.732V15.1241C12.7437 15.1403 13.4037 15.1797 14.3137 15.1797C15.4068 15.1797 15.9533 15.1334 16.0552 15.1241V12.7343C19.5658 12.8918 22.1825 13.5031 22.1825 14.2349C22.1825 14.9666 19.5634 15.578 16.0552 15.7355V15.7331ZM16.0552 12.4865V10.3468H20.9529V7.08398H7.61906V10.3468H12.5168V12.4865C8.53607 12.6695 5.54419 13.4568 5.54419 14.4016C5.54419 15.3464 8.53839 16.1338 12.5168 16.319V23.1781H16.0575V16.319C20.0312 16.1361 23.0185 15.3487 23.0185 14.4039C23.0185 13.4614 20.0312 12.6718 16.0575 12.4888" fill="#8A87A9"/>
<path d="M39.4598 7.41145V10.8711H42.8223V13.467H39.4367V18.7306C39.4367 19.8931 40.0781 20.4605 41.0183 20.4605C41.4884 20.4605 42.0326 20.3122 42.4772 20.0899L43.3178 22.6604C42.4541 23.0054 41.7362 23.1536 40.8215 23.1791C38.1769 23.2787 36.4471 21.7711 36.4471 18.7306V13.467H34.1731V10.8711H36.4471V7.73334L39.4598 7.41145ZM97.4289 10.709L97.6512 12.117C98.5913 10.6094 99.8511 10.3871 101.088 10.3871C102.347 10.3871 103.559 10.8804 104.225 11.5473L102.866 14.1664C102.248 13.6476 101.68 13.3744 100.692 13.3744C99.1101 13.3744 97.6512 14.215 97.6512 16.4635V22.8896H94.6361V10.7044L97.4289 10.709ZM90.0394 15.3798C89.8426 13.7982 88.606 13.0062 86.8762 13.0062C85.2459 13.0062 83.9098 13.7982 83.4652 15.3798H90.0394ZM83.4165 17.8761C83.6134 19.3836 84.9241 20.472 87.0499 20.472C88.1614 20.472 89.6203 20.0506 90.3127 19.335L92.2394 21.2385C90.9541 22.5724 88.8538 23.2161 86.9989 23.2161C82.7982 23.2161 80.2996 20.6202 80.2996 16.716C80.2996 13.0085 82.8214 10.3385 86.7766 10.3385C90.8546 10.3385 93.4018 12.8603 92.9318 17.8761H83.4165ZM70.1198 5.59131V12.3624C71.2081 10.9545 72.542 10.533 73.9268 10.533C77.3864 10.533 78.9194 12.8811 78.9194 16.4659V22.8919H75.9044V16.4913C75.9044 14.2659 74.7419 13.3281 73.1348 13.3281C71.354 13.3281 70.1198 14.8356 70.1198 16.665V22.8943H67.1047V5.59362L70.1198 5.59131ZM62.1121 7.27251V10.7322H65.4745V13.3281H62.0889V18.5917C62.0889 19.7542 62.7327 20.3215 63.6705 20.3215C64.1406 20.3215 64.6848 20.1733 65.1294 19.951L65.97 22.5214C65.1063 22.8665 64.3884 23.0147 63.4737 23.0401C60.8292 23.1397 59.0993 21.6299 59.0993 18.5917V13.3281H56.8253V10.7322H59.0993V7.59439L62.1121 7.27251ZM53.7825 15.3798C53.5856 13.7982 52.3491 13.0062 50.6192 13.0062C48.989 13.0062 47.6528 13.7982 47.2082 15.3798H53.7825ZM47.1596 17.8761C47.3564 19.3836 48.6671 20.472 50.7929 20.472C51.9044 20.472 53.3633 20.0506 54.0557 19.335L55.9824 21.2385C54.6972 22.5724 52.5968 23.2161 50.742 23.2161C46.539 23.2161 44.0426 20.6202 44.0426 16.716C44.0426 13.0085 46.5644 10.3385 50.5173 10.3385C54.5953 10.3385 57.1402 12.8603 56.6725 17.8761H47.1596Z" fill="#8A87A9"/>
</svg>
